<?xml version="1.0" encoding="utf-8"?>
<!-- Generator: Adobe Illustrator 19.0.1, SVG Export Plug-In . SVG Version: 6.00 Build 0)  -->
<!DOCTYPE svg PUBLIC "-//W3C//DTD SVG 1.1//EN" "http://www.w3.org/Graphics/SVG/1.1/DTD/svg11.dtd">
<svg version="1.1" id="Layer_1" xmlns="http://www.w3.org/2000/svg" xmlns:xlink="http://www.w3.org/1999/xlink" x="0px" y="0px"
	 width="158.7px" height="56.7px" viewBox="0 0 158.7 56.7" style="enable-background:new 0 0 158.7 56.7;" xml:space="preserve">
<style type="text/css">
	.st0{fill:#00407A;}
	.st1{fill:#54BCEB;}
	.st2{fill:none;}
	.st3{fill:#FFFFFF;}
</style>
<rect x="5.7" y="5.7" class="st0" width="153.1" height="51"/>
<polygon class="st1" points="0,0 0,56.7 5.7,56.7 5.7,5.7 158.7,5.7 158.7,0 "/>
<rect x="17" y="22.7" class="st2" width="130.4" height="17"/>
<g>
	<path class="st3" d="M17,22.7h5.1v5.9h0l4.5-5.9h6.2l-6,6.6l6.9,10.4h-6.3l-4.1-6.6l-1.4,1.6v5H17V22.7z"/>
	<path class="st3" d="M49.1,33.1c0,4.7-2.5,7-7.5,7c-5,0-7.5-2.3-7.5-7V22.7h5.1v9.3c0,1.7,0,3.9,2.5,3.9c2.4,0,2.4-2.2,2.4-3.9
		v-9.3h5.1V33.1z"/>
	<path class="st3" d="M56.5,22.7h5.1v12.6h7.2v4.4H56.5V22.7z"/>
	<path class="st3" d="M70.3,22.7h13.5V27h-8.5v2.1H83v4h-7.7v2.1H84v4.4H70.3V22.7z"/>
	<path class="st3" d="M100.4,33.1c0,4.7-2.5,7-7.5,7c-5,0-7.5-2.3-7.5-7V22.7h5.1v9.3c0,1.7,0,3.9,2.5,3.9c2.4,0,2.4-2.2,2.4-3.9
		v-9.3h5.1V33.1z"/>
	<path class="st3" d="M111.7,39.7H106l-4.9-17h5.1l2.7,10.3h0l2.7-10.3h5.2L111.7,39.7z"/>
	<path class="st3" d="M117.5,22.7H131V27h-8.5v2.1h7.7v4h-7.7v2.1h8.7v4.4h-13.7V22.7z"/>
	<path class="st3" d="M132.6,22.7h5.2l4.8,9.1h0v-9.1h4.8v17h-4.9l-5-9.3h0v9.3h-4.8V22.7z"/>
</g>
</svg>
