<?xml version="1.0" encoding="utf-8"?>
<!-- Generator: Adobe Illustrator 19.1.0, SVG Export Plug-In . SVG Version: 6.00 Build 0)  -->
<svg version="1.1" xmlns="http://www.w3.org/2000/svg" xmlns:xlink="http://www.w3.org/1999/xlink" x="0px" y="0px"
	 viewBox="22 65 220 46" style="enable-background:new 22 65 220 46;" xml:space="preserve">
<style type="text/css">
	.st0{fill:#FFFFFF;}
	.st1{fill:#00407A;}
	.st2{fill:#54BCEB;}
</style>
<g id="Layer_2">
	<rect x="153.1" y="67.8" class="st0" width="86.4" height="40.8"/>
</g>
<g id="Layer_1">
	<g>
		<polygon class="st1" points="150.4,110.9 26.6,110.9 26.6,69.7 150.4,69.7 		"/>
		<path class="st2" d="M242,110.9V65.1H22v45.9h4.6V69.7h123.7v41.2H242L242,110.9z M237.4,106.3h-11.7l-6.9-6.9l-6.9,6.9h-56.9
			V69.7h82.5V106.3L237.4,106.3z"/>
		<polygon class="st0" points="35.8,83.4 39.8,83.4 39.8,88.1 39.8,88.1 43.5,83.4 48.5,83.4 43.8,88.7 49.4,97.2 44.3,97.2 
			40.9,91.7 39.8,93.1 39.8,97.2 35.8,97.2 		"/>
		<path class="st0" d="M61.6,91.9c0,3.8-2,5.6-6,5.6c-4.1,0-6.1-1.8-6.1-5.6v-8.4h4.1v7.5c0,1.4,0,3.1,2,3.1c1.9,0,1.9-1.8,1.9-3.1
			v-7.5h4.1V91.9L61.6,91.9z"/>
		<polygon class="st0" points="67.7,83.4 71.8,83.4 71.8,93.6 77.5,93.6 77.5,97.2 67.7,97.2 		"/>
		<polygon class="st0" points="78.8,83.4 89.8,83.4 89.8,87 82.9,87 82.9,88.6 89.1,88.6 89.1,91.9 82.9,91.9 82.9,93.6 89.9,93.6 
			89.9,97.2 78.8,97.2 		"/>
		<path class="st0" d="M103.1,91.9c0,3.8-2,5.6-6,5.6c-4.1,0-6.1-1.8-6.1-5.6v-8.4h4.1v7.5c0,1.4,0,3.1,2,3.1c1.9,0,1.9-1.8,1.9-3.1
			v-7.5h4.1V91.9L103.1,91.9z"/>
		<polygon class="st0" points="112.3,97.2 107.6,97.2 103.7,83.4 107.9,83.4 110.1,91.7 110.1,91.7 112.3,83.4 116.5,83.4 		"/>
		<polygon class="st0" points="117,83.4 127.9,83.4 127.9,87 121.1,87 121.1,88.6 127.2,88.6 127.2,91.9 121.1,91.9 121.1,93.6 
			128.2,93.6 128.2,97.2 117,97.2 		"/>
		<polygon class="st0" points="129.1,83.4 133.4,83.4 137.3,90.8 137.3,90.8 137.3,83.4 141.1,83.4 141.1,97.2 137.2,97.2 
			133.1,89.6 133.1,89.6 133.1,97.2 129.1,97.2 		"/>
		<path class="st1" d="M165.6,96.8c0.5,0.1,1.2,0.1,1.8,0.1s1.2,0,1.8-0.1V78.3c-0.5-0.1-1.2-0.1-1.8-0.1s-1.2,0-1.8,0.1V96.8
			L165.6,96.8z M173.4,96.8c0.7,0.1,1.2,0.1,1.9,0.1s1.4,0,2-0.1l-3.9-7.1l3.4-6c-0.5-0.1-1.2-0.1-1.9-0.1s-1.4,0-2,0.1l-3.3,6.3
			L173.4,96.8L173.4,96.8z M179.1,90.7c0,1.4,0.1,2.6,0.5,3.4s0.8,1.5,1.5,1.9c0.5,0.4,1.4,0.7,2,0.8c0.8,0.1,1.6,0.1,2.5,0.1
			c1,0,1.9-0.1,2.7-0.3c1-0.1,1.6-0.4,2.2-0.5V83.6c-0.5-0.1-1.2-0.1-1.8-0.1s-1.2,0-1.8,0.1v10.2c-0.4,0.1-1,0.1-1.6,0.1
			c-0.4,0-0.8,0-1.2-0.1c-0.3-0.1-0.7-0.3-0.8-0.5c-0.3-0.3-0.4-0.7-0.5-1.1c-0.1-0.4-0.1-1-0.1-1.8v-6.9c-0.5-0.1-1.2-0.1-1.8-0.1
			s-1.2,0-1.8,0.1L179.1,90.7L179.1,90.7z M193.7,92.3c0,1.6,0.4,2.7,1.2,3.5c0.8,0.7,1.8,1.1,3.1,1.1c0.3,0,0.7,0,1.1,0
			s0.7-0.1,1-0.1c0-0.1,0-0.3,0-0.4s0-0.3,0-0.4c0-0.7-0.1-1.4-0.3-2c-0.1,0-0.3,0-0.4,0.1c-0.1,0-0.3,0-0.4,0c-0.3,0-0.5,0-0.8-0.1
			c-0.1,0-0.4-0.1-0.5-0.4c-0.1-0.1-0.3-0.4-0.3-0.7s-0.1-0.7-0.1-1.2V78.3c-0.5-0.1-1.2-0.1-1.8-0.1s-1.2,0-1.8,0.1V92.3
			L193.7,92.3z M208.5,94.1c-0.1,0-0.4,0.1-0.7,0.1c-0.3,0-0.5,0-0.8,0c-0.3,0-0.5,0-0.8,0c-0.3,0-0.5-0.1-0.8-0.1
			c-0.3-0.1-0.5-0.3-0.7-0.5c-0.1-0.3-0.3-0.5-0.3-1c0-0.7,0.3-1.1,0.7-1.5c0.5-0.3,1.1-0.4,1.9-0.4c0.1,0,0.4,0,0.7,0
			c0.3,0,0.4,0,0.7,0.1v3.3H208.5z M208.5,88.5c-0.5,0-1.1-0.1-1.6-0.1c-0.7,0-1.4,0.1-2,0.3s-1.2,0.4-1.8,0.7
			c-0.5,0.3-1,0.8-1.4,1.4c-0.4,0.5-0.5,1.2-0.5,2s0.1,1.5,0.4,2s0.7,1,1.2,1.4c0.5,0.4,1.1,0.5,1.9,0.8c0.7,0.1,1.5,0.3,2.3,0.3
			c1.1,0,2-0.1,2.9-0.3c0.8-0.1,1.5-0.4,2.2-0.5v-7.6c0-1.9-0.5-3.3-1.5-4.1c-1-0.8-2.3-1.2-4.1-1.2c-0.7,0-1.4,0-2,0.1
			s-1.5,0.3-2.2,0.5c0,0.5,0,1,0.1,1.4c0.1,0.4,0.3,0.8,0.5,1.2c1.1-0.4,2-0.5,2.9-0.5c0.4,0,0.8,0,1.1,0.1c0.4,0,0.7,0.1,0.8,0.3
			c0.3,0.1,0.4,0.4,0.5,0.5c0.1,0.3,0.1,0.5,0.1,1v0.4H208.5z M215,96.8c0.5,0.1,1.2,0.1,1.8,0.1s1.2,0,1.8-0.1V78.3
			c-0.5-0.1-1.2-0.1-1.8-0.1c-0.5,0-1.2,0-1.8,0.1V96.8L215,96.8z M222.9,96.8c0.7,0.1,1.2,0.1,1.9,0.1s1.4,0,2-0.1l-3.9-7.1l3.4-6
			c-0.5-0.1-1.2-0.1-1.9-0.1s-1.4,0-2,0.1l-3.3,6.3L222.9,96.8L222.9,96.8z"/>
	</g>
</g>
</svg>
