<?xml version="1.0" encoding="utf-8"?>
<!-- Generator: Adobe Illustrator 19.1.0, SVG Export Plug-In . SVG Version: 6.00 Build 0)  -->
<svg version="1.1" id="Layer_1" xmlns="http://www.w3.org/2000/svg" xmlns:xlink="http://www.w3.org/1999/xlink" x="0px" y="0px"
     width="220px" height="46px" viewBox="22 65 220 46" style="enable-background:new 22 65 220 46;" xml:space="preserve">
<style type="text/css">
    .st0{fill:#FFFFFF;}
    .st1{fill:#00407A;}
    .st2{fill:#54BCEB;}
</style>
<g id="Layer_1_1_">
    <g>
        <rect x="153.8" y="68.6" class="st0" width="85.2" height="38.4"/>
        <polygon class="st1" points="150.4,110.8 26.6,110.8 26.6,69.6 150.4,69.6        "/>
        <path class="st2" d="M242,110.8V65H22v45.9h4.6V69.6h123.7v41.2L242,110.8L242,110.8z M237.4,106.2h-11.7l-6.9-6.9l-6.9,6.9H155
            V69.6h82.5v36.6H237.4z"/>
        <polygon class="st0" points="35.8,83.3 39.8,83.3 39.8,88 39.8,88 43.5,83.3 48.5,83.3 43.8,88.6 49.4,97.1 44.3,97.1 40.9,91.6
            39.8,93 39.8,97.1 35.8,97.1         "/>
        <path class="st0" d="M61.6,91.8c0,3.8-2,5.6-6,5.6c-4.1,0-6.1-1.8-6.1-5.6v-8.4h4.1v7.5c0,1.4,0,3.1,2,3.1c1.9,0,1.9-1.8,1.9-3.1
            v-7.5h4.1V91.8L61.6,91.8z"/>
        <polygon class="st0" points="67.7,83.3 71.8,83.3 71.8,93.5 77.5,93.5 77.5,97.1 67.7,97.1        "/>
        <polygon class="st0" points="78.8,83.3 89.8,83.3 89.8,86.9 82.9,86.9 82.9,88.5 89.1,88.5 89.1,91.8 82.9,91.8 82.9,93.5
            89.9,93.5 89.9,97.1 78.8,97.1       "/>
        <path class="st0" d="M103.1,91.8c0,3.8-2,5.6-6,5.6c-4.1,0-6.1-1.8-6.1-5.6v-8.4h4.1v7.5c0,1.4,0,3.1,2,3.1c1.9,0,1.9-1.8,1.9-3.1
            v-7.5h4.1V91.8L103.1,91.8z"/>
        <polygon class="st0" points="112.3,97.1 107.6,97.1 103.7,83.3 107.9,83.3 110.1,91.6 110.1,91.6 112.3,83.3 116.5,83.3        "/>
        <polygon class="st0" points="117,83.3 127.9,83.3 127.9,86.9 121.1,86.9 121.1,88.5 127.2,88.5 127.2,91.8 121.1,91.8 121.1,93.5
            128.2,93.5 128.2,97.1 117,97.1      "/>
        <polygon class="st0" points="129.1,83.3 133.4,83.3 137.3,90.8 137.3,90.8 137.3,83.3 141.1,83.3 141.1,97.1 137.2,97.1
            133.1,89.5 133.1,89.5 133.1,97.1 129.1,97.1         "/>
        <path class="st1" d="M165.6,96.8c0.5,0.1,1.2,0.1,1.8,0.1s1.2,0,1.8-0.1V78.2c-0.5-0.1-1.2-0.1-1.8-0.1s-1.2,0-1.8,0.1V96.8
            L165.6,96.8z M173.4,96.8c0.7,0.1,1.2,0.1,1.9,0.1s1.4,0,2-0.1l-3.9-7.1l3.4-6c-0.5-0.1-1.2-0.1-1.9-0.1s-1.4,0-2,0.1l-3.3,6.3
            L173.4,96.8L173.4,96.8z M179.1,90.6c0,1.4,0.1,2.6,0.5,3.4s0.8,1.5,1.5,1.9c0.5,0.4,1.4,0.7,2,0.8c0.8,0.1,1.6,0.1,2.5,0.1
            c1,0,1.9-0.1,2.7-0.3c1-0.1,1.6-0.4,2.2-0.5V83.5c-0.5-0.1-1.2-0.1-1.8-0.1s-1.2,0-1.8,0.1v10.2c-0.4,0.1-1,0.1-1.6,0.1
            c-0.4,0-0.8,0-1.2-0.1c-0.3-0.1-0.7-0.3-0.8-0.5c-0.3-0.3-0.4-0.7-0.5-1.1s-0.1-1-0.1-1.8v-6.9c-0.5-0.1-1.2-0.1-1.8-0.1
            s-1.2,0-1.8,0.1L179.1,90.6L179.1,90.6z M193.7,92.2c0,1.6,0.4,2.7,1.2,3.5c0.8,0.7,1.8,1.1,3.1,1.1c0.3,0,0.7,0,1.1,0
            s0.7-0.1,1-0.1c0-0.1,0-0.3,0-0.4s0-0.3,0-0.4c0-0.7-0.1-1.4-0.3-2c-0.1,0-0.3,0-0.4,0.1c-0.1,0-0.3,0-0.4,0c-0.3,0-0.5,0-0.8-0.1
            c-0.1,0-0.4-0.1-0.5-0.4c-0.1-0.1-0.3-0.4-0.3-0.7s-0.1-0.7-0.1-1.2V78.2c-0.5-0.1-1.2-0.1-1.8-0.1s-1.2,0-1.8,0.1V92.2
            L193.7,92.2z M208.5,94c-0.1,0-0.4,0.1-0.7,0.1s-0.5,0-0.8,0s-0.5,0-0.8,0s-0.5-0.1-0.8-0.1c-0.3-0.1-0.5-0.3-0.7-0.5
            c-0.1-0.3-0.3-0.5-0.3-1c0-0.7,0.3-1.1,0.7-1.5c0.5-0.3,1.1-0.4,1.9-0.4c0.1,0,0.4,0,0.7,0s0.4,0,0.7,0.1V94H208.5z M208.5,88.4
            c-0.5,0-1.1-0.1-1.6-0.1c-0.7,0-1.4,0.1-2,0.3s-1.2,0.4-1.8,0.7c-0.5,0.3-1,0.8-1.4,1.4c-0.4,0.5-0.5,1.2-0.5,2s0.1,1.5,0.4,2
            s0.7,1,1.2,1.4s1.1,0.5,1.9,0.8c0.7,0.1,1.5,0.3,2.3,0.3c1.1,0,2-0.1,2.9-0.3c0.8-0.1,1.5-0.4,2.2-0.5v-7.6c0-1.9-0.5-3.3-1.5-4.1
            c-1-0.8-2.3-1.2-4.1-1.2c-0.7,0-1.4,0-2,0.1s-1.5,0.3-2.2,0.5c0,0.5,0,1,0.1,1.4s0.3,0.8,0.5,1.2c1.1-0.4,2-0.5,2.9-0.5
            c0.4,0,0.8,0,1.1,0.1c0.4,0,0.7,0.1,0.8,0.3c0.3,0.1,0.4,0.4,0.5,0.5c0.1,0.3,0.1,0.5,0.1,1v0.4h0.2V88.4z M215,96.8
            c0.5,0.1,1.2,0.1,1.8,0.1s1.2,0,1.8-0.1V78.2c-0.5-0.1-1.2-0.1-1.8-0.1c-0.5,0-1.2,0-1.8,0.1V96.8L215,96.8z M222.9,96.8
            c0.7,0.1,1.2,0.1,1.9,0.1s1.4,0,2-0.1l-3.9-7.1l3.4-6c-0.5-0.1-1.2-0.1-1.9-0.1s-1.4,0-2,0.1l-3.3,6.3L222.9,96.8L222.9,96.8z"/>
    </g>
</g>
</svg>
