<?xml version="1.0" encoding="utf-8"?>
<!-- Generator: Adobe Illustrator 19.1.0, SVG Export Plug-In . SVG Version: 6.00 Build 0)  -->
<svg version="1.1" id="Layer_1" xmlns="http://www.w3.org/2000/svg" xmlns:xlink="http://www.w3.org/1999/xlink" x="0px" y="0px"
     width="220px" height="46px" viewBox="0 0 161.6 33.7" style="enable-background:new 0 0 161.6 33.7;" xml:space="preserve">
<style type="text/css">
    .st0{fill:#00407A;}
    .st1{fill:#54BCEB;}
    .st2{fill:#FFFFFF;}
</style>
<g>
    <polygon class="st0" points="94.3,33.7 3.4,33.7 3.4,3.4 94.3,3.4 94.3,33.7  "/>
    <path class="st1" d="M161.6,33.7V0H0v33.7h3.4V3.4h90.9v30.3H161.6L161.6,33.7z M158.2,30.3h-8.6l-5.1-5.1l-5.1,5.1H97.6V3.4h60.6
        V30.3L158.2,30.3z"/>
    <polygon class="st2" points="10.1,13.5 13.1,13.5 13.1,16.9 13.1,16.9 15.8,13.5 19.5,13.5 16,17.4 20.1,23.6 16.4,23.6 13.9,19.6
        13.1,20.6 13.1,23.6 10.1,23.6 10.1,13.5     "/>
    <path class="st2" d="M29.1,19.7c0,2.8-1.5,4.1-4.4,4.1c-3,0-4.5-1.3-4.5-4.1v-6.2h3V19c0,1,0,2.3,1.5,2.3c1.4,0,1.4-1.3,1.4-2.3
        v-5.5h3V19.7L29.1,19.7z"/>
    <polygon class="st2" points="33.6,13.5 36.6,13.5 36.6,21 40.8,21 40.8,23.6 33.6,23.6 33.6,13.5  "/>
    <polygon class="st2" points="41.7,13.5 49.8,13.5 49.8,16.1 44.7,16.1 44.7,17.3 49.3,17.3 49.3,19.7 44.7,19.7 44.7,21 49.9,21
        49.9,23.6 41.7,23.6 41.7,13.5   "/>
    <path class="st2" d="M59.6,19.7c0,2.8-1.5,4.1-4.4,4.1c-3,0-4.5-1.3-4.5-4.1v-6.2h3V19c0,1,0,2.3,1.5,2.3c1.4,0,1.4-1.3,1.4-2.3
        v-5.5h3V19.7L59.6,19.7z"/>
    <polygon class="st2" points="66.3,23.6 62.9,23.6 60,13.5 63.1,13.5 64.7,19.6 64.7,19.6 66.3,13.5 69.4,13.5 66.3,23.6    "/>
    <polygon class="st2" points="69.8,13.5 77.8,13.5 77.8,16.1 72.8,16.1 72.8,17.3 77.3,17.3 77.3,19.7 72.8,19.7 72.8,21 78,21
        78,23.6 69.8,23.6 69.8,13.5     "/>
    <polygon class="st2" points="78.7,13.5 81.8,13.5 84.7,18.9 84.7,18.9 84.7,13.5 87.5,13.5 87.5,23.6 84.6,23.6 81.6,18 81.6,18
        81.6,23.6 78.7,23.6 78.7,13.5   "/>
    <path class="st0" d="M105.5,23.3c0.4,0.1,0.9,0.1,1.3,0.1c0.4,0,0.9,0,1.3-0.1V9.7c-0.4-0.1-0.9-0.1-1.3-0.1c-0.4,0-0.9,0-1.3,0.1
        V23.3L105.5,23.3z M111.2,23.3c0.5,0.1,0.9,0.1,1.4,0.1c0.5,0,1,0,1.5-0.1l-2.9-5.2l2.5-4.4c-0.4-0.1-0.9-0.1-1.4-0.1
        c-0.5,0-1,0-1.5,0.1l-2.4,4.6L111.2,23.3L111.2,23.3z M115.4,18.8c0,1,0.1,1.9,0.4,2.5c0.3,0.6,0.6,1.1,1.1,1.4
        c0.4,0.3,1,0.5,1.5,0.6c0.6,0.1,1.2,0.1,1.8,0.1c0.7,0,1.4-0.1,2-0.2c0.7-0.1,1.2-0.3,1.6-0.4v-9.2c-0.4-0.1-0.9-0.1-1.3-0.1
        c-0.4,0-0.9,0-1.3,0.1v7.5c-0.3,0.1-0.7,0.1-1.2,0.1c-0.3,0-0.6,0-0.9-0.1c-0.2-0.1-0.5-0.2-0.6-0.4c-0.2-0.2-0.3-0.5-0.4-0.8
        c-0.1-0.3-0.1-0.7-0.1-1.3v-5.1c-0.4-0.1-0.9-0.1-1.3-0.1c-0.4,0-0.9,0-1.3,0.1V18.8L115.4,18.8z M126.1,20c0,1.2,0.3,2,0.9,2.6
        c0.6,0.5,1.3,0.8,2.3,0.8c0.2,0,0.5,0,0.8,0c0.3,0,0.5-0.1,0.7-0.1c0-0.1,0-0.2,0-0.3c0-0.1,0-0.2,0-0.3c0-0.5-0.1-1-0.2-1.5
        c-0.1,0-0.2,0-0.3,0.1c-0.1,0-0.2,0-0.3,0c-0.2,0-0.4,0-0.6-0.1c-0.1,0-0.3-0.1-0.4-0.3c-0.1-0.1-0.2-0.3-0.2-0.5
        c0-0.2-0.1-0.5-0.1-0.9V9.7c-0.4-0.1-0.9-0.1-1.3-0.1c-0.4,0-0.9,0-1.3,0.1V20L126.1,20z M137,21.3c-0.1,0-0.3,0.1-0.5,0.1
        c-0.2,0-0.4,0-0.6,0c-0.2,0-0.4,0-0.6,0c-0.2,0-0.4-0.1-0.6-0.1c-0.2-0.1-0.4-0.2-0.5-0.4s-0.2-0.4-0.2-0.7c0-0.5,0.2-0.8,0.5-1.1
        c0.4-0.2,0.8-0.3,1.4-0.3c0.1,0,0.3,0,0.5,0c0.2,0,0.3,0,0.5,0.1V21.3L137,21.3z M137,17.2c-0.4,0-0.8-0.1-1.2-0.1
        c-0.5,0-1,0.1-1.5,0.2c-0.5,0.1-0.9,0.3-1.3,0.5c-0.4,0.2-0.7,0.6-1,1c-0.3,0.4-0.4,0.9-0.4,1.5c0,0.6,0.1,1.1,0.3,1.5
        c0.2,0.4,0.5,0.7,0.9,1c0.4,0.3,0.8,0.4,1.4,0.6c0.5,0.1,1.1,0.2,1.7,0.2c0.8,0,1.5-0.1,2.1-0.2c0.6-0.1,1.1-0.3,1.6-0.4v-5.6
        c0-1.4-0.4-2.4-1.1-3c-0.7-0.6-1.7-0.9-3-0.9c-0.5,0-1,0-1.5,0.1c-0.5,0.1-1.1,0.2-1.6,0.4c0,0.4,0,0.7,0.1,1
        c0.1,0.3,0.2,0.6,0.4,0.9c0.8-0.3,1.5-0.4,2.1-0.4c0.3,0,0.6,0,0.8,0.1c0.3,0,0.5,0.1,0.6,0.2c0.2,0.1,0.3,0.3,0.4,0.4
        c0.1,0.2,0.1,0.4,0.1,0.7V17.2L137,17.2z M141.8,23.3c0.4,0.1,0.9,0.1,1.3,0.1c0.4,0,0.9,0,1.3-0.1V9.7c-0.4-0.1-0.9-0.1-1.3-0.1
        c-0.4,0-0.9,0-1.3,0.1V23.3L141.8,23.3z M147.6,23.3c0.5,0.1,0.9,0.1,1.4,0.1c0.5,0,1,0,1.5-0.1l-2.9-5.2l2.5-4.4
        c-0.4-0.1-0.9-0.1-1.4-0.1c-0.5,0-1,0-1.5,0.1l-2.4,4.6L147.6,23.3L147.6,23.3z"/>
</g>
</svg>
